<?xml version="1.0" encoding="UTF-8" standalone="no"?>
<!-- Created with Inkscape (http://www.inkscape.org/) -->

<svg
   width="133.22765mm"
   height="85.939087mm"
   viewBox="0 0 133.22765 85.939089"
   version="1.1"
   id="svg135"
   xml:space="preserve"
   inkscape:version="1.2.1 (9c6d41e410, 2022-07-14)"
   sodipodi:docname="cubesat_misc3.svg"
   xmlns:inkscape="http://www.inkscape.org/namespaces/inkscape"
   xmlns:sodipodi="http://sodipodi.sourceforge.net/DTD/sodipodi-0.dtd"
   xmlns="http://www.w3.org/2000/svg"
   xmlns:svg="http://www.w3.org/2000/svg"><sodipodi:namedview
     id="namedview137"
     pagecolor="#ffffff"
     bordercolor="#000000"
     borderopacity="0.25"
     inkscape:showpageshadow="2"
     inkscape:pageopacity="0.0"
     inkscape:pagecheckerboard="0"
     inkscape:deskcolor="#d1d1d1"
     inkscape:document-units="mm"
     showgrid="false"
     inkscape:zoom="1.0129245"
     inkscape:cx="365.27895"
     inkscape:cy="192.01826"
     inkscape:window-width="1920"
     inkscape:window-height="991"
     inkscape:window-x="-9"
     inkscape:window-y="-9"
     inkscape:window-maximized="1"
     inkscape:current-layer="svg135" /><defs
     id="defs132"><clipPath
       clipPathUnits="userSpaceOnUse"
       id="clipPath276"><path
         d="M 0,0 H 413 V 379 H 0 Z"
         id="path274" /></clipPath><clipPath
       clipPathUnits="userSpaceOnUse"
       id="clipPath304"><path
         d="M 0,0 H 413 V 379 H 0 Z"
         id="path302" /></clipPath><clipPath
       clipPathUnits="userSpaceOnUse"
       id="clipPath422"><path
         d="M 0,0 H 413 V 379 H 0 Z"
         id="path420" /></clipPath><clipPath
       clipPathUnits="userSpaceOnUse"
       id="clipPath1456"><g
         id="g1460"
         transform="scale(2.8346458)"><path
           d="M 0,0 H 145.69721 V 113.27341 H 0 Z"
           id="path1458"
           style="stroke-width:0.352778" /></g></clipPath><clipPath
       clipPathUnits="userSpaceOnUse"
       id="clipPath1462"><g
         id="g1466"
         transform="scale(2.8346458)"><path
           d="M 0,0 H 145.69721 V 113.27341 H 0 Z"
           id="path1464"
           style="stroke-width:0.352778" /></g></clipPath><clipPath
       clipPathUnits="userSpaceOnUse"
       id="clipPath1468"><g
         id="g1472"
         transform="scale(2.8346458)"><path
           d="M 0,0 H 145.69721 V 113.27341 H 0 Z"
           id="path1470"
           style="stroke-width:0.352778" /></g></clipPath><clipPath
       clipPathUnits="userSpaceOnUse"
       id="clipPath1474"><g
         id="g1478"
         transform="scale(2.8346458)"><path
           d="M 0,0 H 145.69721 V 113.27341 H 0 Z"
           id="path1476"
           style="stroke-width:0.352778" /></g></clipPath><clipPath
       clipPathUnits="userSpaceOnUse"
       id="clipPath1480"><g
         id="g1484"
         transform="scale(2.8346458)"><path
           d="M 0,0 H 145.69721 V 113.27341 H 0 Z"
           id="path1482"
           style="stroke-width:0.352778" /></g></clipPath><clipPath
       clipPathUnits="userSpaceOnUse"
       id="clipPath1486"><g
         id="g1490"
         transform="scale(2.8346458)"><path
           d="M 0,0 H 145.69721 V 113.27341 H 0 Z"
           id="path1488"
           style="stroke-width:0.352778" /></g></clipPath><clipPath
       clipPathUnits="userSpaceOnUse"
       id="clipPath1492"><g
         id="g1496"
         transform="scale(2.8346458)"><path
           d="M 0,0 H 145.69721 V 113.27341 H 0 Z"
           id="path1494"
           style="stroke-width:0.352778" /></g></clipPath><clipPath
       clipPathUnits="userSpaceOnUse"
       id="clipPath1498"><g
         id="g1502"
         transform="scale(2.8346458)"><path
           d="M 0,0 H 145.69721 V 113.27341 H 0 Z"
           id="path1500"
           style="stroke-width:0.352778" /></g></clipPath><clipPath
       clipPathUnits="userSpaceOnUse"
       id="clipPath1504"><g
         id="g1508"
         transform="scale(2.8346458)"><path
           d="M 0,0 H 145.69721 V 113.27341 H 0 Z"
           id="path1506"
           style="stroke-width:0.352778" /></g></clipPath><clipPath
       clipPathUnits="userSpaceOnUse"
       id="clipPath1510"><g
         id="g1514"
         transform="scale(2.8346458)"><path
           d="M 0,0 H 145.69721 V 113.27341 H 0 Z"
           id="path1512"
           style="stroke-width:0.352778" /></g></clipPath><clipPath
       clipPathUnits="userSpaceOnUse"
       id="clipPath1516"><g
         id="g1520"
         transform="scale(2.8346458)"><path
           d="M 0,0 H 145.69721 V 113.27341 H 0 Z"
           id="path1518"
           style="stroke-width:0.352778" /></g></clipPath><clipPath
       clipPathUnits="userSpaceOnUse"
       id="clipPath1522"><g
         id="g1526"
         transform="scale(2.8346458)"><path
           d="M 0,0 H 145.69721 V 113.27341 H 0 Z"
           id="path1524"
           style="stroke-width:0.352778" /></g></clipPath><clipPath
       clipPathUnits="userSpaceOnUse"
       id="clipPath1528"><g
         id="g1532"
         transform="scale(2.8346458)"><path
           d="M 0,0 H 145.69721 V 113.27341 H 0 Z"
           id="path1530"
           style="stroke-width:0.352778" /></g></clipPath><clipPath
       clipPathUnits="userSpaceOnUse"
       id="clipPath1534"><g
         id="g1538"
         transform="scale(2.8346458)"><path
           d="M 0,0 H 145.69721 V 113.27341 H 0 Z"
           id="path1536"
           style="stroke-width:0.352778" /></g></clipPath><clipPath
       clipPathUnits="userSpaceOnUse"
       id="clipPath1540"><g
         id="g1544"
         transform="scale(2.8346458)"><path
           d="M 0,0 H 145.69721 V 113.27341 H 0 Z"
           id="path1542"
           style="stroke-width:0.352778" /></g></clipPath><clipPath
       clipPathUnits="userSpaceOnUse"
       id="clipPath1546"><g
         id="g1550"
         transform="scale(2.8346458)"><path
           d="M 0,0 H 145.69721 V 113.27341 H 0 Z"
           id="path1548"
           style="stroke-width:0.352778" /></g></clipPath><clipPath
       clipPathUnits="userSpaceOnUse"
       id="clipPath1552"><g
         id="g1556"
         transform="scale(2.8346458)"><path
           d="M 0,0 H 145.69721 V 113.27341 H 0 Z"
           id="path1554"
           style="stroke-width:0.352778" /></g></clipPath><clipPath
       clipPathUnits="userSpaceOnUse"
       id="clipPath1558"><g
         id="g1562"
         transform="scale(2.8346458)"><path
           d="M 0,0 H 145.69721 V 113.27341 H 0 Z"
           id="path1560"
           style="stroke-width:0.352778" /></g></clipPath><clipPath
       clipPathUnits="userSpaceOnUse"
       id="clipPath1564"><g
         id="g1568"
         transform="scale(2.8346458)"><path
           d="M 0,0 H 145.69721 V 113.27341 H 0 Z"
           id="path1566"
           style="stroke-width:0.352778" /></g></clipPath><clipPath
       clipPathUnits="userSpaceOnUse"
       id="clipPath1570"><g
         id="g1574"
         transform="scale(2.8346458)"><path
           d="M 0,0 H 145.69721 V 113.27341 H 0 Z"
           id="path1572"
           style="stroke-width:0.352778" /></g></clipPath></defs><g
     inkscape:label="Capa 1"
     inkscape:groupmode="layer"
     id="layer1"
     transform="translate(-1.5434027e-7,-7.9302353)" /><g
     id="g266"
     transform="matrix(0.35277776,0,0,0.35277776,-1.5434027e-7,-7.9302353)"><g
       id="g268"><g
         id="g270"><g
           id="g272"
           clip-path="url(#clipPath276)"><g
             id="g278"><g
               id="g280"
               transform="scale(1,-1)"><path
                 d="m 35.195,-215.273 0.778,-8.516 1.007,-8.539 1.231,-8.551 1.457,-8.566 0.977,-3.192 H 28.824 v 37.449 z"
                 style="fill:#91d1ff;fill-opacity:1;fill-rule:nonzero;stroke:#000000;stroke-width:1.41732;stroke-linecap:butt;stroke-linejoin:round;stroke-miterlimit:7;stroke-dasharray:none;stroke-opacity:1"
                 id="path282" /></g></g></g></g></g><text
       xml:space="preserve"
       transform="translate(-0.249023,238.98176)"
       style="font-variant:normal;font-weight:normal;font-size:15px;font-family:'Times New Roman';-inkscape-font-specification:TimesNewRomanPSMT;writing-mode:lr-tb;fill:#000000;fill-opacity:1;fill-rule:nonzero;stroke:none"
       id="text286"><tspan
         x="0 13.335008"
         y="0"
         sodipodi:role="line"
         id="tspan284">M4</tspan></text></g><g
     id="g296"
     transform="matrix(0.35277776,0,0,0.35277776,-1.5434027e-7,-7.9302353)"
     clip-path="url(#clipPath1570)"><g
       id="g298"><g
         id="g300"
         clip-path="url(#clipPath304)"><g
           id="g306"><g
             id="g308"
             transform="scale(1,-1)"><path
               d="m 347.047,-82.734 -3.645,-0.106 -10.543,-0.801 -9.308,-1.363 -9.309,-2.516 -2.531,-1.066 v 9.766 l 35.449,0.226 z"
               style="fill:#91d1ff;fill-opacity:1;fill-rule:nonzero;stroke:#000000;stroke-width:1.41732;stroke-linecap:butt;stroke-linejoin:round;stroke-miterlimit:7;stroke-dasharray:none;stroke-opacity:1"
               id="path310" /></g></g></g></g></g><g
     id="g312"
     transform="matrix(0.35277776,0,0,0.35277776,-1.5434027e-7,-7.9302353)"
     clip-path="url(#clipPath1564)"><path
       d="m 361.258,212.93 -52.512,52.515 c -0.285,-0.601 -5.09,-5.09 -5.09,-5.09 l 52.512,-52.515 z"
       style="fill:#91d1ff;fill-opacity:1;fill-rule:nonzero;stroke:#000000;stroke-width:0.749999;stroke-linecap:butt;stroke-linejoin:miter;stroke-miterlimit:4;stroke-dasharray:none;stroke-opacity:1"
       id="path314" /></g><g
     id="g316"
     transform="matrix(0.35277776,0,0,0.35277776,-1.5434027e-7,-7.9302353)"
     clip-path="url(#clipPath1558)"><path
       d="m 281.723,158.559 0.074,-10.375 -1.391,-15.532 -2.351,-15.621 -2.571,-15.593 -1.964,-13.946 -2.989,-15.672 -3.926,-18.621 -2.882,-12.722 -1.301,-5.141 30.09,0.226 3.121,122.997 z"
       style="fill:#ff9191;fill-opacity:1;fill-rule:nonzero;stroke:#000000;stroke-width:1.41732;stroke-linecap:butt;stroke-linejoin:round;stroke-miterlimit:7;stroke-dasharray:none;stroke-opacity:1"
       id="path318" /></g><g
     id="g320"
     transform="matrix(0.35277776,0,0,0.35277776,-1.5434027e-7,-7.9302353)"
     clip-path="url(#clipPath1552)"><path
       d="m 315.445,87.277 -1.203,0.243 -1.199,0.359"
       style="fill:none;stroke:#000000;stroke-width:0.84;stroke-linecap:round;stroke-linejoin:round;stroke-miterlimit:10;stroke-dasharray:none;stroke-opacity:1"
       id="path322" /></g><g
     id="g324"
     transform="matrix(0.35277776,0,0,0.35277776,-1.5434027e-7,-7.9302353)"
     clip-path="url(#clipPath1546)"><path
       d="m 23.363,99.039 v 4.918"
       style="fill:none;stroke:#000000;stroke-width:0.84;stroke-linecap:round;stroke-linejoin:round;stroke-miterlimit:10;stroke-dasharray:none;stroke-opacity:1"
       id="path326" /></g><g
     id="g328"
     transform="matrix(0.35277776,0,0,0.35277776,-1.5434027e-7,-7.9302353)"
     clip-path="url(#clipPath1540)"><path
       d="m 32.844,101.438 h 5.039"
       style="fill:none;stroke:#000000;stroke-width:0.84;stroke-linecap:round;stroke-linejoin:round;stroke-miterlimit:10;stroke-dasharray:none;stroke-opacity:1"
       id="path330" /></g><g
     id="g332"
     transform="matrix(0.35277776,0,0,0.35277776,-1.5434027e-7,-7.9302353)"
     clip-path="url(#clipPath1534)"><path
       d="m 23.363,44.438 v 7.441"
       style="fill:none;stroke:#000000;stroke-width:0.84;stroke-linecap:round;stroke-linejoin:round;stroke-miterlimit:10;stroke-dasharray:none;stroke-opacity:1"
       id="path334" /></g><g
     id="g336"
     transform="matrix(0.35277776,0,0,0.35277776,-1.5434027e-7,-7.9302353)"
     clip-path="url(#clipPath1528)"><path
       d="m 32.844,51.879 h 5.039"
       style="fill:none;stroke:#000000;stroke-width:0.84;stroke-linecap:round;stroke-linejoin:round;stroke-miterlimit:10;stroke-dasharray:none;stroke-opacity:1"
       id="path338" /></g><g
     id="g340"
     transform="matrix(0.35277776,0,0,0.35277776,-1.5434027e-7,-7.9302353)"
     clip-path="url(#clipPath1522)"><path
       d="m 23.363,158.559 v -7.442"
       style="fill:none;stroke:#000000;stroke-width:0.84;stroke-linecap:round;stroke-linejoin:round;stroke-miterlimit:10;stroke-dasharray:none;stroke-opacity:1"
       id="path342" /></g><g
     id="g344"
     transform="matrix(0.35277776,0,0,0.35277776,-1.5434027e-7,-7.9302353)"
     clip-path="url(#clipPath1516)"><path
       d="m 32.844,151.117 h 5.039"
       style="fill:none;stroke:#000000;stroke-width:0.84;stroke-linecap:round;stroke-linejoin:round;stroke-miterlimit:10;stroke-dasharray:none;stroke-opacity:1"
       id="path346" /></g><g
     id="g348"
     transform="matrix(0.35277776,0,0,0.35277776,-1.5434027e-7,-7.9302353)"
     clip-path="url(#clipPath1510)"><path
       d="m 10.523,151.117 h 270.602 l -246.121,38.762 148.922,9.48 -147.961,20.879 h 307.078 l 0.121,-49.8 0.238,-87.598 19.442,98.039"
       style="fill:none;stroke:#00bf00;stroke-width:0.84;stroke-linecap:round;stroke-linejoin:round;stroke-miterlimit:10;stroke-dasharray:none;stroke-opacity:1"
       id="path350" /></g><g
     id="g352"
     transform="matrix(0.35277776,0,0,0.35277776,-1.5434027e-7,-7.9302353)"
     clip-path="url(#clipPath1504)"><path
       d="m 10.523,101.438 h 264.961 l -241.441,73.921 149.641,18 -146.399,40.438 h 292.078 l 0.242,-49.68 0.239,-99.48 33,96.242"
       style="fill:none;stroke:#00bf00;stroke-width:0.84;stroke-linecap:round;stroke-linejoin:round;stroke-miterlimit:10;stroke-dasharray:none;stroke-opacity:1"
       id="path354" /></g><g
     id="g356"
     transform="matrix(0.35277776,0,0,0.35277776,-1.5434027e-7,-7.9302353)"
     clip-path="url(#clipPath1498)"><path
       d="m 10.523,51.879 h 255.84 l -234,108.117 150.723,27 -143.402,61.32 275.402,-0.117 0.117,-49.801 0.359,-110.761 47.403,93.242"
       style="fill:none;stroke:#00bf00;stroke-width:0.84;stroke-linecap:round;stroke-linejoin:round;stroke-miterlimit:10;stroke-dasharray:none;stroke-opacity:1"
       id="path358" /></g><g
     id="g360"
     transform="matrix(0.35277776,0,0,0.35277776,-1.5434027e-7,-7.9302353)"
     clip-path="url(#clipPath1492)"><path
       d="m 10.523,151.117 h 270.602 l -246.121,38.762 148.922,9.48 -147.961,20.879 h 307.078 l 0.121,-49.8 0.238,-87.598 19.442,98.039"
       style="fill:none;stroke:#0000ff;stroke-width:0.84;stroke-linecap:round;stroke-linejoin:round;stroke-miterlimit:10;stroke-dasharray:none;stroke-opacity:1"
       id="path362" /></g><g
     id="g364"
     transform="matrix(0.35277776,0,0,0.35277776,-1.5434027e-7,-7.9302353)"
     clip-path="url(#clipPath1486)"><path
       d="m 10.523,101.438 h 264.961 l -241.441,73.921 149.641,18 -146.399,40.438 h 292.078 l 0.242,-49.68 0.239,-99.48 33,96.242"
       style="fill:none;stroke:#0000ff;stroke-width:0.84;stroke-linecap:round;stroke-linejoin:round;stroke-miterlimit:10;stroke-dasharray:none;stroke-opacity:1"
       id="path366" /></g><g
     id="g368"
     transform="matrix(0.35277776,0,0,0.35277776,-1.5434027e-7,-7.9302353)"
     clip-path="url(#clipPath1480)"><path
       d="m 10.523,51.879 h 255.84 l -234,108.117 150.723,27 -143.402,61.32 275.402,-0.117 0.117,-49.801 0.359,-110.761 47.403,93.242"
       style="fill:none;stroke:#0000ff;stroke-width:0.84;stroke-linecap:round;stroke-linejoin:round;stroke-miterlimit:10;stroke-dasharray:none;stroke-opacity:1"
       id="path370" /></g><g
     id="g388"
     transform="matrix(0.35277776,0,0,0.35277776,-1.5434027e-7,-7.9302353)"
     clip-path="url(#clipPath1462)"><path
       d="m 372.648,188.789 h -19.55 c 0.05,-0.629 0,-7.199 0,-7.199 h 19.55 z"
       style="fill:#808080;fill-opacity:1;fill-rule:nonzero;stroke:#000000;stroke-width:0.749999;stroke-linecap:butt;stroke-linejoin:miter;stroke-miterlimit:4;stroke-dasharray:none;stroke-opacity:1"
       id="path390" /></g><text
     xml:space="preserve"
     style="font-variant:normal;font-weight:normal;font-size:3.52778px;font-family:'Times New Roman';-inkscape-font-specification:TimesNewRomanPSMT;writing-mode:lr-tb;fill:#000000;fill-opacity:1;fill-rule:nonzero;stroke:none;stroke-width:0.352778"
     id="text396"
     x="123.54058"
     y="61.11422"><tspan
       x="123.54058 124.71533 127.45641 129.01923 130.78311"
       y="61.11422"
       sodipodi:role="line"
       id="tspan392"
       style="stroke-width:0.352778">Image</tspan><tspan
       x="122.56131 124.52276 126.28664 127.4614 128.63615 130.19896 131.76176"
       y="64.641998"
       sodipodi:role="line"
       id="tspan394"
       style="stroke-width:0.352778">Surface</tspan></text><text
     xml:space="preserve"
     style="font-variant:normal;font-weight:normal;font-size:5.29167px;font-family:'Times New Roman';-inkscape-font-specification:TimesNewRomanPSMT;writing-mode:lr-tb;fill:#000000;fill-opacity:1;fill-rule:nonzero;stroke:none;stroke-width:0.352778"
     id="text402"
     x="118.05332"
     y="80.115921"><tspan
       x="118.05332"
       y="80.115921"
       id="tspan398"
       style="stroke-width:0.352778">G</tspan><tspan
       x="112.22263 116.92693"
       y="18.557886"
       sodipodi:role="line"
       id="tspan400"
       style="stroke-width:0.352778">M5</tspan></text><g
     id="g404"
     transform="matrix(0.35277776,0,0,0.35277776,-1.5434027e-7,-7.9302353)"
     clip-path="url(#clipPath1456)"><path
       d="m 191.641,183.395 0.07,18.375 h -6.578 l -0.633,-10.516 -0.887,-7.859 z"
       style="fill:#ff9191;fill-opacity:1;fill-rule:nonzero;stroke:#000000;stroke-width:1.41732;stroke-linecap:butt;stroke-linejoin:miter;stroke-miterlimit:7;stroke-dasharray:none;stroke-opacity:1"
       id="path406" /></g><text
     xml:space="preserve"
     style="font-variant:normal;font-weight:normal;font-size:5.29167px;font-family:'Times New Roman';-inkscape-font-specification:TimesNewRomanPSMT;writing-mode:lr-tb;fill:#000000;fill-opacity:1;fill-rule:nonzero;stroke:none;stroke-width:0.352778"
     id="text410"
     x="69.660744"
     y="61.789261"><tspan
       x="69.660744 74.365036"
       y="61.789261"
       sodipodi:role="line"
       id="tspan408"
       style="stroke-width:0.352778">M3</tspan></text><g
     id="g414"
     transform="matrix(0.35277776,0,0,0.35277776,-1.5434027e-7,-7.9302353)"><g
       id="g416"><g
         id="g418"
         clip-path="url(#clipPath422)"><g
           id="g424"><g
             id="g426"
             transform="scale(1,-1)"><path
               d="m 31.898,-158.004 0.379,-2.855 0.75,-5.707 1.258,-11.192 0.254,-7.726 0.359,-7.204 h -8.929 v 34.684 z"
               style="fill:#ff9191;fill-opacity:1;fill-rule:nonzero;stroke:#000000;stroke-width:1.41732;stroke-linecap:butt;stroke-linejoin:round;stroke-miterlimit:7;stroke-dasharray:none;stroke-opacity:1"
               id="path428" /></g></g></g></g></g><text
     xml:space="preserve"
     style="font-variant:normal;font-weight:normal;font-size:5.29167px;font-family:'Times New Roman';-inkscape-font-specification:TimesNewRomanPSMT;writing-mode:lr-tb;fill:#000000;fill-opacity:1;fill-rule:nonzero;stroke:none;stroke-width:0.352778"
     id="text432"
     x="-0.069783479"
     y="55.715595"><tspan
       x="-0.069783479 4.634511"
       y="55.715595"
       sodipodi:role="line"
       id="tspan430"
       style="stroke-width:0.352778">M2</tspan></text><g
     id="g434"
     transform="matrix(0.35277776,-0.12840052,0.12840052,0.35277776,-1.5434027e-7,-7.9302353)"><path
       d="m 56.342,219.675 0.872,-0.003 -0.002,5.156 -0.87,-0.001 z"
       style="fill:#808080;fill-opacity:1;fill-rule:nonzero;stroke:#000000;stroke-width:0.26637;stroke-linecap:round;stroke-linejoin:round;stroke-miterlimit:7;stroke-dasharray:none;stroke-opacity:1"
       id="path436" /></g><g
     id="g438"
     transform="matrix(0.35277776,-0.12840052,0.12840052,0.35277776,-1.5434027e-7,-7.9302353)"><path
       d="m 56.342,227.733 0.871,0.001 v 5.152 h -0.871 z"
       style="fill:#808080;fill-opacity:1;fill-rule:nonzero;stroke:#000000;stroke-width:0.26637;stroke-linecap:round;stroke-linejoin:round;stroke-miterlimit:7;stroke-dasharray:none;stroke-opacity:1"
       id="path440" /></g><text
     xml:space="preserve"
     style="font-variant:normal;font-weight:normal;font-size:3.52778px;font-family:'Times New Roman';-inkscape-font-specification:TimesNewRomanPSMT;writing-mode:lr-tb;fill:#000000;fill-opacity:1;fill-rule:nonzero;stroke:none;stroke-width:0.352778"
     id="text444"
     x="50.179115"
     y="67.952469"><tspan
       x="50.179115 52.14056 53.117756 54.094952"
       y="67.952469"
       sodipodi:role="line"
       id="tspan442"
       style="stroke-width:0.352778">Slit</tspan></text><text
     xml:space="preserve"
     style="font-variant:normal;font-weight:normal;font-size:5.29167px;font-family:'Times New Roman';-inkscape-font-specification:TimesNewRomanPSMT;writing-mode:lr-tb;fill:#000000;fill-opacity:1;fill-rule:nonzero;stroke:none;stroke-width:0.352778"
     id="text468"
     x="93.735085"
     y="3.5760112"><tspan
       x="93.735085 98.439377"
       y="3.5760112"
       sodipodi:role="line"
       id="tspan466"
       style="stroke-width:0.352778">M1</tspan></text></svg>
