<?xml version="1.0" encoding="UTF-8" standalone="no"?>
<svg
   id="svg1"
   sodipodi:docname="no_image.svg"
   viewBox="0 0 60.471027 70.340187"
   sodipodi:version="0.32"
   _SVGFile__filename="oldscale/actions/7days.svg"
   version="1.0"
   y="0"
   x="0"
   inkscape:version="1.2.1 (9c6d41e410, 2022-07-14)"
   width="60.471027"
   height="70.340187"
   inkscape:export-filename="no_image.png"
   inkscape:export-xdpi="96"
   inkscape:export-ydpi="96"
   xmlns:inkscape="http://www.inkscape.org/namespaces/inkscape"
   xmlns:sodipodi="http://sodipodi.sourceforge.net/DTD/sodipodi-0.dtd"
   xmlns="http://www.w3.org/2000/svg"
   xmlns:svg="http://www.w3.org/2000/svg"
   xmlns:rdf="http://www.w3.org/1999/02/22-rdf-syntax-ns#"
   xmlns:cc="http://creativecommons.org/ns#"
   xmlns:dc="http://purl.org/dc/elements/1.1/">
  <defs
     id="defs540" />
  <sodipodi:namedview
     id="base"
     bordercolor="#666666"
     inkscape:pageshadow="2"
     inkscape:window-y="-9"
     pagecolor="#ffffff"
     inkscape:window-height="991"
     inkscape:zoom="11.145833"
     inkscape:window-x="-9"
     borderopacity="1.0"
     inkscape:current-layer="svg1"
     inkscape:cx="43.424299"
     inkscape:cy="23.820561"
     inkscape:window-width="1920"
     inkscape:pageopacity="0.0"
     inkscape:showpageshadow="2"
     inkscape:pagecheckerboard="0"
     inkscape:deskcolor="#d1d1d1"
     showgrid="false"
     inkscape:window-maximized="1" />
  <rect
     style="fill:#ffffff;fill-opacity:1;fill-rule:evenodd;stroke-width:0.579525"
     id="rect659"
     width="60.471027"
     height="70.340187"
     x="0"
     y="0"
     ry="0" />
  <g
     id="g1745"
     style="stroke:#ffffff"
     transform="translate(0,9.5334702)">
    <path
       id="path1122"
       style="fill:none;stroke-width:7.5;stroke-linecap:round;stroke-linejoin:round"
       d="m 9.9501,12.176 c -1.1804,0 -2.1307,0.951 -2.1307,2.131 v 38.544 c 0,1.18 0.9503,2.131 2.1307,2.131 h 40.022 c 1.18,0 2.13,-0.951 2.13,-2.131 V 14.307 c 0,-1.18 -0.95,-2.131 -2.13,-2.131 z" />
    <path
       id="path1123"
       style="fill:none;stroke-width:7.5;stroke-linecap:round;stroke-linejoin:round"
       d="M 6.3655,5.3309 C 5.262,5.3309 4.3737,5.999 4.3737,6.829 v 5.63 c 0,0.83 0.8883,1.498 1.9918,1.498 h 47.27 c 1.102,0 1.99,-0.668 1.99,-1.498 v -5.63 c 0,-0.83 -0.888,-1.4981 -1.991,-1.4981 h -47.27 z" />
  </g>
  <rect
     id="rect788"
     ry="2.4649999"
     style="fill:#ffffff;fill-rule:evenodd;stroke-width:1.14585"
     rx="2.1306"
     height="42.804726"
     width="44.281326"
     y="21.709076"
     x="7.8192182" />
  <path
     id="rect850"
     style="fill:none;stroke:#000000;stroke-width:2.50002;stroke-linecap:round;stroke-linejoin:round"
     d="m 9.9500051,21.709599 c -1.180351,0 -2.1306303,0.950572 -2.1306303,2.130728 v 38.543608 c 0,1.181132 0.9502793,2.130728 2.1306303,2.130728 H 49.971739 c 1.180155,0 2.130728,-0.949596 2.130728,-2.130728 V 23.840327 c 0,-1.180156 -0.950573,-2.130728 -2.130728,-2.130728 z" />
  <path
     id="rect804"
     style="fill:#000000;fill-rule:evenodd;stroke:#000000;stroke-width:2.49997;stroke-linecap:round;stroke-linejoin:round"
     d="m 6.3654809,14.864403 c -1.103435,0 -1.99176,0.668162 -1.99176,1.49812 v 5.630385 c 0,0.829958 0.888325,1.49812 1.99176,1.49812 H 53.634925 c 1.103435,0 1.99176,-0.668162 1.99176,-1.49812 v -5.630385 c 0,-0.829958 -0.888325,-1.49812 -1.99176,-1.49812 z" />
  <g
     id="g1883"
     transform="translate(0.82776,9.2411202)">
    <path
       id="path842"
       sodipodi:nodetypes="cc"
       style="fill:none;stroke:#000000;stroke-width:5;stroke-linecap:round;stroke-linejoin:round"
       d="M 14.086,22.088 H 44.18" />
    <path
       id="path844"
       sodipodi:nodetypes="cc"
       style="fill:none;stroke:#000000;stroke-width:5;stroke-linecap:round;stroke-linejoin:round"
       d="M 14.086,30.78 H 44.18" />
    <path
       id="path846"
       sodipodi:nodetypes="cc"
       style="fill:none;stroke:#000000;stroke-width:5;stroke-linecap:round;stroke-linejoin:round"
       d="M 14.086,39.473 H 44.18" />
    <path
       id="path848"
       sodipodi:nodetypes="cc"
       style="fill:none;stroke:#000000;stroke-width:5;stroke-linecap:round;stroke-linejoin:round"
       d="M 14.086,48.165 H 30.928" />
  </g>
  <metadata
     id="metadata537">
    <rdf:RDF>
      <cc:Work>
        <dc:format>image/svg+xml</dc:format>
        <dc:type
           rdf:resource="http://purl.org/dc/dcmitype/StillImage" />
        <cc:license
           rdf:resource="http://creativecommons.org/publicdomain/zero/1.0/" />
        <dc:publisher>
          <cc:Agent
             rdf:about="http://openclipart.org/">
            <dc:title>Openclipart</dc:title>
          </cc:Agent>
        </dc:publisher>
      </cc:Work>
      <cc:License
         rdf:about="http://creativecommons.org/licenses/publicdomain/">
        <cc:permits
           rdf:resource="http://creativecommons.org/ns#Reproduction" />
        <cc:permits
           rdf:resource="http://creativecommons.org/ns#Distribution" />
        <cc:permits
           rdf:resource="http://creativecommons.org/ns#DerivativeWorks" />
      </cc:License>
    </rdf:RDF>
  </metadata>
</svg>
